# xmcd
#
# Track frame offsets:
# 150
# 12427
# 27677
# 43830
# 59535
# 76850
# 96022
# 113872
# 122842
# 138757
# 157502
# 171702
#
# Disc length: 2456 seconds
#
#
# Revision: 0
# Processed by: cddbd v1.5.1PL0 Copyright (c) Steve Scherf et al.
# Submitted via: FreeRIP 2.941 
#
DISCID=9c09960c
DTITLE=Magnet - Shark bait
DYEAR=1999
DGENRE=Alt. Rock
TTITLE0=Drag
TTITLE1=Emily
TTITLE2=Rule me
TTITLE3=Shave your head
TTITLE4=Rope
TTITLE5=Over you
TTITLE6=Thanks for the hand
TTITLE7=Window
TTITLE8=Trainer
TTITLE9=There's a brick
TTITLE10=Esque
TTITLE11=The saddest song
EXTD=
EXTT0=
EXTT1=
EXTT2=
EXTT3=
EXTT4=
EXTT5=
EXTT6=
EXTT7=
EXTT8=
EXTT9=
EXTT10=
EXTT11=
PLAYORDER=
